<?xml version="1.0" encoding="UTF-8" standalone="no"?>
<!-- Generator: Adobe Illustrator 18.1.0, SVG Export Plug-In . SVG Version: 6.00 Build 0)  -->
<svg id="Layer_1" xmlns="http://www.w3.org/2000/svg" xml:space="preserve" height="240px" viewBox="0 0 240 240" width="240px" version="1.1" y="0px" x="0px" xmlns:xlink="http://www.w3.org/1999/xlink" enable-background="new 0 0 240 240">
	<circle cy="120" cx="120" r="120" fill="#1B0A40"/>
			<path d="m123.7 166.7c-3.3 0-6.4-1.5-9-4.3-9.3-10.3-18.7-20.6-28.1-30.9l3.4-3.1c9.4 10.3 18.7 20.6 28.1 30.9 2.2 2.4 4.5 3.3 7.2 2.6 2.8-0.6 4.6-2.2 5.4-4.9 0.8-2.8 0.2-5.1-1.8-7.4 0 0-39.3-45.6-41.3-47.9-4.6-5.4-10.3-8-17.4-8h-30.2v-4.6h30.3c8.4 0 15.4 3.3 20.9 9.6 2 2.3 41.3 47.9 41.3 47.9 3 3.3 4 7.4 2.8 11.7-1.2 4.2-4.3 7.1-8.7 8.1-1.2 0.2-2.1 0.3-2.9 0.3z" fill="#fff"/>
			<path d="m102 183.6c-4.3 0-7.7-1.5-11.4-5.1l-30.3-30.2c-3.1-3.1-6.2-4.6-9.7-4.7h-7.3v-4.6h7.4c4.7 0.1 8.9 2.1 12.9 6l30.3 30.2c2.8 2.7 5.1 3.8 8.2 3.8h85.1c4.6 0 8.4-3.8 8.4-8.4s-3.8-8.4-8.4-8.4h-54.5v-4.6h54.5c7.1 0 12.9 5.8 12.9 12.9s-5.8 12.9-12.9 12.9c-0.7 0.2-68.9 0.2-85.2 0.2 0.1 0 0 0 0 0z" fill="#fff"/>
		<circle cy="63.2" cx="68.8" r="6.8" fill="#E61B83"/>
		<circle cy="123.5" cx="186.6" r="6.8" fill="#E61B83"/>
		<rect y="61.5" x="68.8" height="3.4" width="117.8" fill="#E61B83"/>
		<rect y="91.4" x="120.7" height="3.4" width="65.9" fill="#E61B83"/>
		<polygon points="186.6 125.2 146.2 125.2 120.1 94.8 110.5 94.8 84.1 64.3 86.7 62.1 112 91.4 121.7 91.4 147.8 121.8 186.6 121.8" fill="#E61B83"/>
		<circle cy="93" cx="186.6" r="6.8" fill="#E61B83"/>
		<circle cy="63.2" cx="186.6" r="6.8" fill="#E61B83"/>
</svg>
